<?xml version="1.0" encoding="UTF-8"?>
<svg width="612" height="553.42" version="1.1" viewBox="-10 0 612 553.42" xmlns="http://www.w3.org/2000/svg">
  <style>
    @media (prefers-color-scheme: dark) {
      path {
        fill: #fff;
      }
    }
  </style>
  <path
    d="m602 194.15-51.039 142.11c-4.0031 12.009-10.008 24.018-18.014 34.026l-64.049 101.08h52.04c4.0031 0 8.0061 4.0031 7.0054 8.0061v67.051c0 1.0008-1.0008 3.0023-2.0015 5.0038-1.0008 1.0008-3.0023 2.0015-6.0046 2.0015v-1.0008h-281.22c-2.0015 0-4.0031-1.0008-6.0046-2.0015-1.0008-2.0015-1.0008-4.0031-1.0008-5.0038v-66.051c0-4.0031 3.0023-8.0061 7.0054-8.0061h55.042c-48.037-40.031-60.046-87.067-57.044-127.1l-109.08-47.036c-20.015-9.0069-29.022-33.025-21.016-52.04l13.01-33.025 121.09 56.043-97.074-135.1 70.054-44.034 90.069 172.13c3.0023 3.0023 6.0046 6.0046 10.008 6.0046 2.0015 0 4.0031 0 6.0046-1.0008 5.0038-3.0023 7.0054-10.008 4.0031-16.012l-92.07-173.13 67.051-44.034 86.066 181.14-26.02-162.12c-3.0023-21.016 11.008-42.032 33.025-46.035l43.033-6.0046 40.031 236.18c-79.06 14.011-124.09 81.062-136.1 124.09-2.0015 6.0046 2.0015 13.01 8.0061 14.011h2.0015c5.0038 0 10.008-3.0023 11.008-8.0061 10.008-37.028 50.038-97.074 118.09-109.08l24.018-43.033c16.012-30.023 52.04-42.032 82.063-28.021zm-536.41 45.034 14.011-2.0015c6.0046-1.0008 9.0069-5.0038 9.0069-10.008-7.0054-75.057 40.031-157.12 106.08-189.14 5.0038-2.0015 7.0054-8.0061 5.0038-13.01l-5.0038-13.01c-3.0023-5.0038-8.0061-6.0046-12.009-5.0038-80.061 39.03-135.1 136.1-128.1 225.17 1.0008 4.0031 6.0046 8.0061 11.008 7.0054zm-62.047 26.02 14.011-2.0015c5.0038-2.0015 8.0061-7.0054 8.0061-12.009-10.008-69.053 13.01-139.11 63.048-194.15 3.0023-4.0031 3.0023-10.008 0-13.01l-11.008-11.008c-3.0023-3.0023-10.008-3.0023-13.01 1.0008-58.044 62.047-83.064 143.11-72.055 223.17 0 6.0046 6.0046 9.0069 11.008 8.0061z"
    fill="currentColor" stroke-width="1.0008" />
</svg>
